<svg width="150" height="150" viewBox="0 0 150 150" fill="none" xmlns="http://www.w3.org/2000/svg">
<path fill-rule="evenodd" clip-rule="evenodd" d="M4.30328 0.668135C2.49631 1.62314 1.64467 2.46872 0.776228 4.17052C0.0516377 5.58992 0 6.81544 0 22.5288C0 38.2422 0.0516377 39.4677 0.776228 40.8871C2.64344 44.5457 6.73852 46.0348 10.5516 44.4416C14.4529 42.8111 15.1434 41.0326 15.1549 32.5802L15.1639 26.0316L35.5533 46.3766C56.9238 67.7004 56.8373 67.6262 60.2459 67.6036C61.6475 67.5946 64.3574 66.2924 65.4516 65.1017C66.5365 63.9217 67.6238 61.4383 67.6205 60.148C67.6127 56.8182 67.618 56.8243 46.3865 35.5424L26.0434 15.1511L32.5914 15.1421C41.043 15.1306 42.8213 14.4399 44.4516 10.5383C46.0447 6.72486 44.5557 2.62939 40.8975 0.761996C39.4762 0.0365165 38.2701 -0.0130767 22.4549 0.00208865C7.8209 0.0164343 5.36639 0.106196 4.30328 0.668135ZM109.221 0.668135C105.337 2.72038 103.882 6.9134 105.689 10.8474C107.364 14.4957 109.163 15.1511 117.502 15.1511H123.964L103.626 35.5424C81.7688 57.4568 82.0565 57.1112 82.4848 60.9083C83.0426 65.858 88.2902 68.9074 92.9435 66.9859C93.9939 66.5523 100.739 60.0898 114.652 46.1864L134.836 26.016L134.845 32.5724C134.857 41.0335 135.546 42.8107 139.448 44.4416C142.328 45.645 146.127 44.8978 148.004 42.7586C149.993 40.4916 150 40.426 150 22.5288C150 7.81062 149.916 5.51737 149.336 4.37136C148.393 2.50847 147.555 1.64979 145.816 0.761996C144.394 0.0365165 143.188 -0.0130767 127.373 0.00208865C112.739 0.0164343 110.284 0.106196 109.221 0.668135ZM57.377 82.8485C56.2606 83.1629 51.4193 87.767 35.5533 103.603L15.1639 123.954V117.495C15.1639 109.159 14.5082 107.36 10.8607 105.685C6.95861 103.893 2.69672 105.336 0.776228 109.099C0.0516377 110.518 0 111.743 0 127.457C0 143.17 0.0516377 144.396 0.776228 145.815C1.66393 147.555 2.52254 148.392 4.38524 149.336C5.53114 149.916 7.82418 150 22.541 150C40.4365 150 40.502 149.993 42.7688 148.004C44.991 146.053 45.6766 142.112 44.3111 139.138C42.6361 135.49 40.8369 134.835 32.502 134.835H26.0434L46.3865 114.443C63.7106 97.0777 66.7951 93.8086 67.1738 92.4126C67.793 90.1283 67.7229 88.9794 66.8483 87.0842C65.1123 83.3227 61.4729 81.6951 57.377 82.8485ZM87.0902 83.1453C85.1061 84.0609 83.8574 85.3586 83.0115 87.3842C82.2627 89.1758 82.2254 90.1964 82.8262 92.4126C83.2049 93.8086 86.2893 97.0777 103.614 114.443L123.957 134.835H117.498C109.163 134.835 107.364 135.49 105.689 139.138C104.323 142.112 105.009 146.053 107.231 148.004C109.498 149.993 109.564 150 127.455 150C143.171 150 144.396 149.948 145.816 149.224C147.555 148.336 148.393 147.477 149.336 145.614C149.916 144.468 150 142.176 150 127.461C150 111.743 149.948 110.518 149.224 109.099C147.303 105.336 143.041 103.893 139.139 105.685C135.492 107.36 134.836 109.159 134.836 117.495V123.954L114.447 103.609C97.0828 86.2833 93.8139 83.1986 92.418 82.8198C90.134 82.2005 88.9852 82.2706 87.0902 83.1453Z" fill="black"/>
</svg>
