<svg width="81" height="79" viewBox="0 0 81 79" fill="none" xmlns="http://www.w3.org/2000/svg">
<path fill-rule="evenodd" clip-rule="evenodd" d="M36.4218 0.068781C34.2299 0.209281 32.4767 0.513958 30.1611 1.15702C21.6666 3.51591 14.5744 8.11815 9.09227 14.8289C-2.36444 28.8531 -3.06119 48.7766 7.38284 63.7105C9.70225 67.0272 12.7144 70.1313 16.0602 72.653C19.6544 75.3619 23.41 77.4406 26.6855 78.534C28.2686 79.0623 28.6812 79.0716 29.3703 78.5942C30.2444 77.9886 30.2253 78.0987 30.262 73.4624L30.2922 69.6553L29.068 69.7167C27.2029 69.8102 24.2018 69.7934 23.502 69.6855C22.6747 69.558 21.6279 69.2894 20.9769 69.0377C19.0702 68.3003 18.1456 67.275 16.2367 63.7815C14.9531 61.4323 14.0666 60.3451 11.6766 58.1893C11.2106 57.7691 10.7701 57.3335 10.6978 57.2215L10.5662 57.0179L10.8149 56.783C11.2472 56.375 11.661 56.2225 12.4308 56.188C13.0149 56.1617 13.2075 56.1839 13.754 56.3408C14.8944 56.6683 16.0834 57.3742 16.962 58.2455C17.2042 58.4857 17.803 59.1622 18.2925 59.7487C20.7303 62.6701 22.0809 63.8596 23.5092 64.3433C24.6126 64.717 26.0724 64.8198 27.4203 64.6187C28.2988 64.4877 29.8381 64.1113 30.0494 63.9758C30.3011 63.8145 30.6079 63.2039 30.9158 62.2513C31.2895 61.0951 31.6868 60.2765 32.3504 59.2948C32.6482 58.8544 32.8918 58.4684 32.8918 58.4371C32.8918 58.4059 32.2008 58.2459 31.3562 58.0817C26.5385 57.145 23.7047 56.0696 21.2476 54.2457C18.4887 52.198 16.288 48.7148 15.4996 45.1481C15.0923 43.3054 14.9523 41.674 14.9539 38.7874C14.9566 33.6313 15.487 31.7516 17.8151 28.6457C18.5115 27.7167 18.6547 27.4048 18.6076 26.9192C18.5865 26.7026 18.5195 26.3512 18.4585 26.1381C18.2594 25.4416 18.1859 24.221 18.2308 22.3557C18.3029 19.3654 18.5761 17.9002 19.2038 17.1379C19.5333 16.7378 19.7697 16.647 20.5721 16.6125C21.421 16.5761 22.3168 16.7409 23.5951 17.1686C25.2073 17.7081 26.6206 18.3904 29.1674 19.8588L30.4909 20.6218L31.8502 20.308C34.402 19.7188 35.8414 19.6022 40.5872 19.6006C45.4551 19.599 47.1067 19.7328 49.3215 20.3083C49.99 20.482 50.5835 20.6242 50.6404 20.6242C50.6973 20.6242 51.3259 20.273 52.0372 19.8438C52.7485 19.4146 53.7275 18.8613 54.2129 18.6141C56.7206 17.337 59.2887 16.5251 60.8198 16.5251C61.8594 16.5251 62.0207 16.667 62.4369 17.9491C63.1614 20.1812 63.3115 23.5658 62.789 25.8889C62.501 27.1694 62.5394 27.3405 63.3805 28.5211C64.9405 30.7109 65.8149 32.9467 66.3003 35.9874C66.4395 36.8593 66.4596 37.2483 66.4596 39.0701C66.4596 41.3082 66.3948 42.0179 66.027 43.8053C65.5248 46.2457 64.5355 48.813 63.4805 50.4133C61.4634 53.4734 58.4483 55.6706 54.46 56.9869C53.2369 57.3907 52.4108 57.5903 50.2322 58.0087C49.2272 58.2016 48.3968 58.3686 48.3872 58.3795C48.3774 58.3905 48.8742 59.2887 49.4909 60.3756L50.6123 62.3515L50.6132 64.1213C50.6142 65.9587 50.7122 72.4295 50.7931 76.0034L50.8397 78.0589L51.4143 78.4169C52.4571 79.0665 52.5475 79.089 53.3173 78.8893C55.8665 78.228 61.2379 75.4741 64.2162 73.3015C69.3838 69.5317 73.4953 64.7767 76.4112 59.1981C78.9197 54.3988 80.4082 49.2613 80.9122 43.6639C81.0292 42.3645 81.0293 38.355 80.9125 37.1266C80.3254 30.9552 78.662 25.5666 75.7638 20.4475C71.2311 12.4414 63.7826 5.94103 55.2781 2.56952C51.314 0.998005 48.1941 0.355082 43.0935 0.0584626C41.6752 -0.0240142 37.7759 -0.0180069 36.4218 0.068781Z" fill="#242424"/>
</svg>
