<svg width="79" height="79" viewBox="0 0 79 79" fill="none" xmlns="http://www.w3.org/2000/svg">
<path fill-rule="evenodd" clip-rule="evenodd" d="M31.0493 0.0195951C25.4205 0.144313 20.7966 0.351034 19.4653 0.537276C12.7189 1.48132 7.32484 4.70263 4.01206 9.76588C2.76366 11.6739 1.55556 14.5228 1.00127 16.8658C0.169448 20.382 0.0684289 22.4819 0.0126394 37.4077C-0.0476378 53.5718 0.0886679 57.5039 0.838217 61.2263C1.75522 65.7802 3.67952 69.4975 6.6412 72.4364C10.3243 76.0913 14.9033 78.0386 21.3001 78.6702C24.2698 78.9635 26.645 79.009 38.441 78.9987C53.8509 78.9853 56.319 78.9354 59.164 78.5799C67.1839 77.5777 73.2057 73.5297 76.415 66.9832C77.6761 64.4108 78.3609 61.8858 78.6913 58.5896C79.0092 55.4183 79.0234 54.4363 78.9848 38.2867C78.944 21.2319 78.9572 21.7403 78.4831 18.8187C77.373 11.9763 74.0741 6.89745 68.5677 3.55354C66.1543 2.08795 63.253 1.07798 60.176 0.63255C59.1163 0.479092 56.4116 0.274041 53.6643 0.138776C51.9329 0.0535212 33.8239 -0.0419289 31.0493 0.0195951ZM28.6295 7.17422C24.9621 7.25763 22.3108 7.3958 20.9398 7.5751C17.003 8.08979 14.1911 9.30436 11.9403 11.4621C9.98284 13.3387 8.75926 15.5055 8.03409 18.3792C7.26931 21.4097 7.06217 26.9089 7.14682 41.9342C7.20455 52.1829 7.28876 55.8306 7.51174 57.7471C8.01182 62.0447 9.27316 64.9738 11.642 67.3385C13.9656 69.6581 17.0326 71.0355 20.8262 71.4631C24.6699 71.8963 33.6834 72.006 49.6165 71.8136C57.1481 71.7227 59.352 71.501 62.2084 70.5471C65.8955 69.3158 68.7415 66.6996 70.2447 63.16C71.1494 61.0291 71.5799 58.8132 71.7982 55.1618C72.0137 51.556 71.9422 25.0487 71.71 22.5101C71.2475 17.4533 69.9893 14.2686 67.4361 11.6917C65.7064 9.94588 63.568 8.77965 60.836 8.09225C57.7599 7.31819 54.932 7.18055 41.1689 7.13529C35.9661 7.11824 30.3234 7.13573 28.6295 7.17422ZM59.5408 13.8135C57.9897 14.1891 56.5924 15.4924 56.1269 16.9979C55.9063 17.711 55.8908 18.9756 56.094 19.6596C56.4628 20.9002 57.3874 22.0535 58.4672 22.6197C61.0817 23.9902 64.246 22.7294 65.2071 19.934C65.3678 19.4667 65.4093 19.1566 65.4093 18.4232C65.4093 17.6897 65.3678 17.3797 65.2071 16.9123C64.3988 14.5614 61.96 13.2277 59.5408 13.8135ZM37.957 19.2671C35.1528 19.5567 33.0412 20.1244 30.8258 21.1845C28.595 22.2518 26.8231 23.53 25.0476 25.3526C22.0843 28.3943 20.3029 31.8469 19.5077 36.0894C19.2503 37.4629 19.1874 40.5028 19.3844 42.049C20.1349 47.9384 23.4415 53.2089 28.4535 56.5046C31.6577 58.6117 35.1029 59.6897 38.9713 59.796C41.447 59.864 43.5208 59.5824 45.6872 58.8839C54.1936 56.1416 59.912 48.3561 59.912 39.5171C59.912 29.5047 52.5705 20.9784 42.6208 19.4353C41.773 19.3038 38.6814 19.1923 37.957 19.2671ZM38.2273 26.4326C33.0962 26.9252 28.5286 30.6608 27.0111 35.606C26.585 36.9947 26.441 37.9827 26.441 39.5171C26.441 42.2449 27.1588 44.6117 28.682 46.9057C29.4086 48 31.0732 49.6622 32.1817 50.4003C36.8111 53.4829 42.7452 53.396 47.2633 50.1794C48.1806 49.5264 49.6041 48.1054 50.2554 47.1925C51.4735 45.4856 52.2879 43.4658 52.6061 41.3629C52.7339 40.5177 52.7353 38.4221 52.6086 37.6273C52.2792 35.5604 51.5557 33.7371 50.3766 32.0024C49.6811 30.9791 48.1272 29.4293 47.0912 28.7256C45.1277 27.3918 43.0761 26.6474 40.7375 26.4201C39.7649 26.3255 39.3196 26.3277 38.2273 26.4326Z" fill="#242424"/>
</svg>
