<svg width="85" height="66" viewBox="0 0 85 66" fill="none" xmlns="http://www.w3.org/2000/svg">
<path fill-rule="evenodd" clip-rule="evenodd" d="M0.888788 0.633416L0 1.26653V32.9688V64.6711L0.780514 65.3357L1.56137 66H42.5472H83.5331L84.2667 65.2929L85 64.5856V32.9572V1.32886L84.2195 0.664279L83.4386 0H42.6079C1.81165 0 1.7769 0.000610484 0.888788 0.633416ZM58.9984 4.05839C58.2726 4.56317 57.6786 5.62589 57.6786 6.42003C57.6786 7.34831 59.4555 8.86111 60.5456 8.86111C61.8189 8.86111 63.4127 7.33731 63.4127 6.11997C63.4127 4.27747 60.5834 2.95594 58.9984 4.05839ZM66.9392 4.41681C65.764 5.48106 65.8382 6.82764 67.1365 8.00372C67.9939 8.78044 68.3393 8.90175 69.2446 8.74439C70.5379 8.5195 71.8452 7.27589 71.8452 6.27031C71.8452 5.87247 71.4523 5.12386 70.972 4.60686C69.8434 3.39197 68.1582 3.31253 66.9392 4.41681ZM75.8635 4.05839C75.1376 4.56317 74.5436 5.62589 74.5436 6.42003C74.5436 7.34831 76.3206 8.86111 77.4107 8.86111C78.5009 8.86111 80.2778 7.34831 80.2778 6.42003C80.2778 4.91639 78.9876 3.68622 77.4107 3.68622C76.8542 3.68622 76.158 3.85367 75.8635 4.05839ZM4.72222 37.125V61.7222H42.5H80.2778V37.125V12.5278H42.5H4.72222V37.125ZM12.9709 21.5279L12.1429 22.2777V37.1113C12.1429 51.5371 12.1614 51.9613 12.8175 52.5556C13.4712 53.1477 13.9417 53.1667 27.9438 53.1667C41.5161 53.1667 42.4295 53.1327 42.9537 52.6078C43.4573 52.1036 43.5119 50.567 43.5119 36.8891V21.729L42.7621 21.2535C42.1128 20.8413 40.1278 20.7778 27.9056 20.7778H13.7987L12.9709 21.5279ZM49.5833 21.3889C49.2123 21.725 48.9087 22.3438 48.9087 22.7639C48.9087 23.184 49.2123 23.8028 49.5833 24.1389C50.2289 24.7237 50.7076 24.75 60.7295 24.75H71.2013L72.0291 23.9999C73.0393 23.085 73.0639 22.6261 72.1579 21.5829L71.459 20.7778H60.8583C50.7076 20.7778 50.2293 20.8037 49.5833 21.3889ZM16.5278 37.125V49.5H27.996H39.4643V37.125V24.75H27.996H16.5278V37.125ZM49.5833 35.75C48.6359 36.6083 48.7296 37.7169 49.8147 38.4902C50.6988 39.1203 50.9707 39.1334 61.1443 39.0469L71.5683 38.9583L72.2335 38.2137C72.9836 37.374 72.8467 36.1546 71.9309 35.5208C71.5164 35.2339 68.7478 35.1389 60.8185 35.1389C50.7076 35.1389 50.2293 35.1649 49.5833 35.75ZM49.4339 50.1793C49.1452 50.5526 48.9087 51.0721 48.9087 51.3333C48.9087 51.5946 49.1452 52.114 49.4339 52.4874C49.9577 53.1651 49.9817 53.1667 60.7335 53.1667C71.0583 53.1667 71.5359 53.1413 72.1825 52.5556C72.9931 51.8213 73.0386 51.0932 72.332 50.1793C71.8078 49.5012 71.7892 49.5 60.8829 49.5C49.9766 49.5 49.9581 49.5012 49.4339 50.1793Z" fill="#242424"/>
</svg>
