<svg width="79" height="79" viewBox="0 0 79 79" fill="none" xmlns="http://www.w3.org/2000/svg">
<path fill-rule="evenodd" clip-rule="evenodd" d="M7.24431 0.260412C3.65432 1.14619 0.838555 4.07806 0.167731 7.62869C0.016492 8.42974 -0.0256413 17.3268 0.0141003 40.1561L0.0687452 71.5808L0.475177 72.6555C1.52483 75.4313 3.57318 77.4773 6.35234 78.5257L7.4283 78.9316L38.8904 78.9862C61.5085 79.0253 70.6629 78.9831 71.4565 78.8353C74.6564 78.2399 77.6122 75.6249 78.6464 72.4741C78.9897 71.4285 79 70.4677 79 39.5129C79 8.55802 78.9897 7.59726 78.6464 6.55161C78.1971 5.1827 77.1761 3.60228 76.0365 2.5116C75.0176 1.53651 73.0119 0.496006 71.5854 0.202708C70.1023 -0.102167 8.4901 -0.047036 7.24431 0.260412ZM16.8117 15.3285C15.7165 15.6743 15.0394 16.0724 14.3833 16.7556C13.5905 17.581 13.224 18.529 13.224 19.7537C13.224 22.3636 15.2633 24.1963 18.3913 24.3976C20.992 24.565 22.9675 23.6022 23.956 21.6858C24.4075 20.8107 24.4655 20.5246 24.3919 19.5352C24.1884 16.8029 21.9704 15.051 18.7561 15.0837C18.0916 15.0905 17.2165 15.2006 16.8117 15.3285ZM13.224 47.9663V65.792H18.8356H24.4473V47.9663V30.1406H18.8356H13.224V47.9663ZM30.1509 47.9663V65.792H35.7626H41.3743L41.3757 56.19C41.3765 50.461 41.4539 46.1062 41.5678 45.3935C41.6727 44.7365 41.991 43.699 42.2753 43.0877C43.3648 40.7443 44.9076 39.677 47.3936 39.5467C49.2547 39.4491 50.3737 39.7086 51.6177 40.5264C52.7106 41.2447 53.5499 42.3687 54.1225 43.8805C54.512 44.9089 54.5228 45.1831 54.5801 55.3631L54.6384 65.792H60.2502H65.8621L65.801 53.801C65.7412 42.0447 65.732 41.7811 65.3287 40.3398C64.631 37.8461 63.4196 35.623 61.8872 34.024C60.3117 32.3802 59.0924 31.5986 56.8773 30.8126C55.3493 30.2703 55.1215 30.2404 52.5056 30.237C49.3978 30.2328 48.2639 30.4563 46.0211 31.5143C44.4712 32.2453 43.4445 32.9276 42.3097 33.9808C41.8628 34.3956 41.4694 34.7348 41.4357 34.7348C41.4019 34.7348 41.3743 33.7011 41.3743 32.4377V30.1406H35.7626H30.1509V47.9663Z" fill="#242424"/>
</svg>
