<svg width="150" height="150" viewBox="0 0 150 150" fill="none" xmlns="http://www.w3.org/2000/svg">
<path fill-rule="evenodd" clip-rule="evenodd" d="M94.4829 0.833204C91.9113 2.19138 89.9738 5.48676 89.9834 8.48617C89.9904 10.7198 91.8067 13.9743 93.7722 15.2758L95.5438 16.4489L108.185 16.5702C115.138 16.6373 120.827 16.8224 120.827 16.982C120.827 17.1413 111.082 27.0291 99.1721 38.9546C87.2621 50.8801 77.3201 61.1656 77.0787 61.8109C75.9561 64.8128 76.922 69.0408 79.2047 71.1147C81.7784 73.4538 85.7443 74.0553 88.6411 72.5463C89.4915 72.1031 99.7536 62.1607 111.446 50.452C123.138 38.7432 132.837 29.1635 133.001 29.1635C133.164 29.1635 133.352 34.8522 133.419 41.8052L133.541 54.4473L134.717 56.2244C136.362 58.7077 139.656 60.2185 142.652 59.8637C145.278 59.5527 147.762 57.9065 149.058 55.6175L149.993 53.9675L150 30.0881C150.005 10.6923 149.899 5.957 149.431 4.86729C148.73 3.23231 146.464 1.02497 144.873 0.42467C144.093 0.130775 135.701 -0.0113785 119.862 0.00071081C97.042 0.0186364 95.9577 0.0540681 94.4829 0.833204ZM4.35483 20.9369C3.45942 21.4493 2.14633 22.589 1.43684 23.4703L0.146665 25.0719L0.0270265 83.9169C-0.0388368 116.281 0.0199385 143.388 0.157084 144.154C0.491403 146.016 3.37563 149.1 5.30526 149.658C6.33615 149.955 25.5807 150.056 65.867 149.971L124.918 149.848L126.52 148.558C127.401 147.849 128.54 146.535 129.053 145.64L129.984 144.012L129.991 111.788C129.997 82.9272 129.927 79.4247 129.323 78.2295C127.746 75.1063 125.005 73.3521 121.704 73.3521C119.102 73.3521 117.991 73.7731 116.017 75.5061C113.185 77.9927 113.287 76.8459 113.304 106C113.313 120.487 113.168 132.575 112.983 132.862C112.716 133.278 102.787 133.363 64.7335 133.279L16.8209 133.173L16.715 85.1287C16.6567 58.704 16.6567 37.042 16.715 36.9903C16.7734 36.9386 29.1411 36.7981 44.1992 36.6776C71.0389 36.4629 71.5996 36.4417 72.7297 35.5979C75.1041 33.8246 76.3509 31.809 76.5485 29.4228C76.877 25.4662 75.1424 22.2655 71.863 20.776C70.2756 20.0548 68.3285 20.0106 38.0806 20.0081L5.98265 20.006L4.35483 20.9369Z" fill="black"/>
</svg>
