<svg width="500" height="500" viewBox="0 0 500 500" fill="none" xmlns="http://www.w3.org/2000/svg">
<path d="M262 314L409 499V361.466L312 264L262 314Z" fill="url(#paint0_linear_283_29)"/>
<path d="M237 314L90 499V361.466L187 264L237 314Z" fill="url(#paint1_linear_283_29)"/>
<path d="M420 135.571V0L250.895 194.035L80 0V135.571L251 304L420 135.571Z" fill="url(#paint2_linear_283_29)"/>
<path d="M421.273 0C420.168 0 419.273 0.895431 419.273 2V136.016V497.881C419.273 498.986 420.168 499.881 421.273 499.881H498C499.104 499.881 500 498.986 500 497.881V2C500 0.895435 499.104 0 498 0H421.273Z" fill="url(#paint3_linear_283_29)"/>
<path d="M80.7269 2C80.7269 0.89543 79.8315 0 78.7269 0H2C0.895432 0 0 0.895431 0 2V497.881C0 498.986 0.89543 499.881 2 499.881H78.7269C79.8315 499.881 80.7269 498.986 80.7269 497.881V136.016V2Z" fill="url(#paint4_linear_283_29)"/>
<defs>
<linearGradient id="paint0_linear_283_29" x1="252.674" y1="3.21933" x2="252.674" y2="519.827" gradientUnits="userSpaceOnUse">
<stop offset="1" stop-color="#40A06B"/>
</linearGradient>
<linearGradient id="paint1_linear_283_29" x1="246.326" y1="3.21933" x2="246.326" y2="519.827" gradientUnits="userSpaceOnUse">
<stop offset="1" stop-color="#40A06B"/>
</linearGradient>
<linearGradient id="paint2_linear_283_29" x1="441.571" y1="-337.35" x2="441.571" y2="330.942" gradientUnits="userSpaceOnUse">
<stop offset="1" stop-color="#40A06B"/>
</linearGradient>
<linearGradient id="paint3_linear_283_29" x1="250.491" y1="0" x2="250.491" y2="521.004" gradientUnits="userSpaceOnUse">
<stop offset="0.25" stop-color="#40A06B"/>
<stop offset="1" stop-color="#7DCCA3"/>
</linearGradient>
<linearGradient id="paint4_linear_283_29" x1="-168.782" y1="0" x2="-168.782" y2="521.004" gradientUnits="userSpaceOnUse">
<stop offset="0.25" stop-color="#40A06B"/>
<stop offset="1" stop-color="#7DCCA3"/>
</linearGradient>
</defs>
</svg>
