<svg width="22" height="19" viewBox="0 0 22 19" fill="none" xmlns="http://www.w3.org/2000/svg">
<path fill-rule="evenodd" clip-rule="evenodd" d="M16.2262 0.0989394C15.5068 0.415873 15.459 1.41404 16.1407 1.88541C16.3363 2.02069 17.6362 3.48685 17.6362 3.57219C17.6362 3.5971 17.7382 3.75523 17.8628 3.92361C18.3598 4.59513 18.9079 5.85097 19.2792 7.16917C19.4524 7.78421 19.5469 9.25361 19.4746 10.2077C19.4229 10.8901 19.1781 11.7733 18.9534 12.0885C18.9023 12.1601 18.8606 12.2667 18.8606 12.3253C18.8606 12.5313 17.9684 13.734 17.4635 14.2087C16.1655 15.4289 14.4794 16.0987 12.7047 16.0991C11.6376 16.0993 10.4796 15.8143 9.54963 15.3225C9.34823 15.216 9.09342 15.0825 8.9835 15.0258C8.87358 14.9691 8.76291 14.8932 8.73761 14.8572C8.71224 14.8211 8.57987 14.7102 8.44342 14.6107C8.17433 14.4146 7.50121 13.7782 7.50121 13.7199C7.50121 13.7003 7.38551 13.5485 7.24416 13.3826C6.39527 12.3871 5.74819 10.2533 5.94158 9.08729C6.11856 8.02023 6.91079 7.11686 7.93613 6.81287C8.78107 6.56239 9.92368 6.73941 10.5046 7.21072C10.6594 7.33629 10.8428 7.46853 10.9121 7.5046C10.9815 7.54067 11.0383 7.60348 11.0383 7.64417C11.0383 7.68486 11.1104 7.81017 11.1985 7.9226C11.51 8.31985 11.6305 8.64359 11.6772 9.20784C11.7525 10.117 12.0079 10.4059 12.7367 10.4059C13.2511 10.4059 13.3639 10.3507 13.5472 10.0092C13.7369 9.65576 13.7374 9.02103 13.5487 8.24779C13.2801 7.14783 12.4489 6.06122 11.3633 5.39076C11.1118 5.23547 10.8058 5.08235 10.6831 5.05051C10.5604 5.01867 10.2305 4.93049 9.94993 4.85446C8.77094 4.53515 6.92052 4.84402 6.11856 5.49407C6.01286 5.57975 5.89716 5.6499 5.86152 5.6499C5.7888 5.6499 4.91651 6.49217 4.91631 6.56258C4.91617 6.58742 4.8236 6.71174 4.71055 6.83889C4.5975 6.96605 4.48649 7.13931 4.46391 7.22386C4.44133 7.30848 4.3495 7.52541 4.25978 7.70594C3.9575 8.3145 3.87805 8.82188 3.91982 9.87744C3.94063 10.4042 4.00069 10.9987 4.0532 11.1985C4.26509 12.0045 4.46867 12.5788 4.72055 13.0811C4.86631 13.3718 4.98528 13.6295 4.98501 13.6538C4.98406 13.7296 5.7403 14.7867 5.96321 15.0212C6.44091 15.5238 7.20049 16.2152 7.27674 16.2169C7.32163 16.218 7.38285 16.2579 7.41278 16.3059C7.46563 16.3904 8.06972 16.8132 8.13781 16.8132C8.15638 16.8132 8.35452 16.919 8.57803 17.0483C9.01377 17.3004 10.2527 17.7468 10.9563 17.9053C11.2578 17.9732 11.7905 18.0022 12.7343 18.0022C13.9368 18.0022 14.1517 17.985 14.7328 17.8419C15.0908 17.7537 15.5271 17.6199 15.7024 17.5446C15.8776 17.4693 16.0657 17.4077 16.1204 17.4077C16.2346 17.4077 17.0715 16.965 17.1294 16.874C17.1507 16.8406 17.2179 16.8132 17.2789 16.8132C17.3398 16.8132 17.565 16.6795 17.7792 16.516C17.9936 16.3525 18.1872 16.2188 18.2095 16.2188C18.2646 16.2188 19.5187 14.977 19.8001 14.6439C19.9239 14.4971 20.0857 14.2639 20.1597 14.1255C20.2336 13.9871 20.3824 13.74 20.4903 13.5765C20.5981 13.4131 20.6888 13.243 20.6917 13.1987C20.6947 13.1543 20.7706 12.9611 20.8605 12.7693C21.0666 12.3296 21.2781 11.6778 21.3812 11.1655C21.5023 10.5636 21.542 8.72834 21.448 8.08549C21.4035 7.7813 21.341 7.324 21.3093 7.06916C21.2344 6.46905 20.7181 4.9729 20.2764 4.0762C20.0854 3.68832 19.9096 3.35613 19.8857 3.33796C19.8619 3.3198 19.7099 3.08616 19.548 2.81877C19.3861 2.55138 19.2035 2.28339 19.1422 2.22315C19.0808 2.16297 18.9724 2.02505 18.9012 1.91665C18.761 1.70303 18.5874 1.51391 17.9083 0.834928C17.0878 0.0145872 16.7516 -0.132518 16.2262 0.0989394ZM6.77482 1.12319C6.43146 1.2094 6.00667 1.3417 5.83091 1.41721C5.65514 1.49271 5.46666 1.55447 5.41197 1.55447C5.29777 1.55447 4.46085 1.99717 4.40289 2.08826C4.38167 2.12162 4.3144 2.14897 4.25345 2.14897C4.19251 2.14897 3.96736 2.28273 3.7531 2.44622C3.53877 2.6097 3.34518 2.74346 3.3228 2.74346C3.26771 2.74346 2.01369 3.98517 1.73229 4.31836C1.60843 4.46506 1.44661 4.69831 1.37267 4.83676C1.29873 4.97514 1.14997 5.22219 1.04209 5.38568C0.93421 5.54916 0.84354 5.71919 0.840615 5.76351C0.837622 5.8079 0.761711 6.00111 0.671857 6.19287C0.465756 6.6326 0.254214 7.28437 0.151095 7.7967C0.0300877 8.39859 -0.00970422 10.2339 0.0843675 10.8767C0.128853 11.1809 0.191295 11.6382 0.223061 11.8931C0.297951 12.4932 0.814223 13.9893 1.25595 14.886C1.44695 15.2739 1.62278 15.6061 1.64665 15.6243C1.67046 15.6424 1.82242 15.8761 1.9843 16.1434C2.14619 16.4108 2.32883 16.6788 2.39018 16.7391C2.45153 16.7992 2.55996 16.9372 2.63111 17.0456C2.77959 17.2718 2.98855 17.4976 3.6612 18.1587C4.43371 18.9179 4.55036 18.9934 4.94658 18.9908C5.35579 18.9879 5.53448 18.9024 5.765 18.599C5.89546 18.4273 5.93668 18.2926 5.93647 18.039C5.9362 17.6461 5.78751 17.3733 5.42871 17.1076C5.18859 16.9298 3.89614 15.4812 3.89614 15.39C3.89614 15.3651 3.79418 15.207 3.66957 15.0386C3.17255 14.3671 2.62444 13.1112 2.25319 11.793C2.07994 11.178 1.98546 9.7086 2.05777 8.7545C2.10946 8.07215 2.3542 7.18892 2.57894 6.8737C2.63002 6.8021 2.67178 6.69549 2.67178 6.6369C2.67178 6.43087 3.56393 5.2282 4.06885 4.75353C5.36681 3.53335 7.05296 2.86355 8.8276 2.86316C9.8947 2.86289 11.0527 3.14792 11.9827 3.6397C12.1841 3.74618 12.4389 3.87975 12.5488 3.93642C12.6588 3.9931 12.7694 4.069 12.7947 4.10506C12.8201 4.14113 12.9525 4.25204 13.0889 4.35151C13.358 4.54763 14.0311 5.18401 14.0311 5.24227C14.0311 5.26196 14.1468 5.41375 14.2882 5.57962C15.1371 6.57514 15.7841 8.70892 15.5908 9.87493C15.4138 10.942 14.6215 11.8454 13.5962 12.1493C12.7513 12.3998 11.6087 12.2228 11.0278 11.7515C10.873 11.6259 10.6896 11.4937 10.6202 11.4576C10.5508 11.4215 10.4941 11.3587 10.4941 11.318C10.4941 11.2773 10.422 11.152 10.3338 11.0396C10.0224 10.6424 9.90184 10.3186 9.85511 9.75438C9.7792 8.83661 9.53562 8.55633 8.81393 8.55633C8.57334 8.55633 8.31745 8.58705 8.24521 8.62457C8.00388 8.75001 7.84131 9.17137 7.84131 9.67141C7.84131 11.1804 8.74257 12.6905 10.169 13.5715C10.4205 13.7267 10.7266 13.8799 10.8492 13.9117C10.9719 13.9435 11.3018 14.0317 11.5824 14.1078C12.7614 14.4271 14.6118 14.1182 15.4138 13.4681C15.5195 13.3825 15.6352 13.3123 15.6708 13.3123C15.7435 13.3123 16.6158 12.47 16.616 12.3996C16.6162 12.3748 16.7087 12.2505 16.8218 12.1233C16.9348 11.9962 17.0459 11.8229 17.0684 11.7383C17.091 11.6537 17.1828 11.4368 17.2726 11.2563C17.5748 10.6477 17.6543 10.1403 17.6125 9.08478C17.5917 8.55798 17.5317 7.96349 17.4791 7.76367C17.2673 6.95773 17.0637 6.38344 16.8118 5.88109C16.666 5.59045 16.5471 5.3327 16.5473 5.30839C16.5483 5.23263 15.792 4.17548 15.5691 3.94098C15.0914 3.43843 14.3319 2.74697 14.2556 2.74531C14.2107 2.74426 14.1495 2.70429 14.1196 2.65634C14.0667 2.57179 13.4626 2.14897 13.3945 2.14897C13.376 2.14897 13.1778 2.04321 12.9543 1.91388C12.5186 1.66181 11.2797 1.21541 10.5761 1.05694C10.2698 0.987978 9.74927 0.960896 8.77237 0.963208C7.55481 0.966114 7.32844 0.984213 6.77482 1.12319Z" fill="#49B388"/>
</svg>
