<?xml version="1.0" encoding="utf-8"?>
<!-- Generator: Adobe Illustrator 27.2.0, SVG Export Plug-In . SVG Version: 6.00 Build 0)  -->
<svg version="1.1" id="Camada_1" xmlns="http://www.w3.org/2000/svg" xmlns:xlink="http://www.w3.org/1999/xlink" x="0px" y="0px"
	 viewBox="0 0 595.3 595.3" style="enable-background:new 0 0 595.3 595.3;" xml:space="preserve">
<style type="text/css">
	.st0{fill:#49B388;}
	.st1{fill:#49B488;}
	.st2{fill:url(#SVGID_1_);}
	.st3{fill:url(#SVGID_00000144332970589428779500000013422230811323216790_);}
	.st4{fill:url(#SVGID_00000029040088403267996970000003332629293012148109_);}
	.st5{fill:url(#SVGID_00000097461002494229052650000011199473716517755523_);}
	.st6{fill:url(#SVGID_00000077307942554374756710000011363493048251305624_);}
</style>
<g>
	<linearGradient id="SVGID_1_" gradientUnits="userSpaceOnUse" x1="229.8688" y1="415.6134" x2="44.3009" y2="176.1709">
		<stop  offset="0.246" style="stop-color:#49B488"/>
		<stop  offset="1" style="stop-color:#86C7A4"/>
	</linearGradient>
	<path class="st2" d="M148.8,170.1l3,306h0c-35,0-63.5-28.4-63.5-63.5V164c0-24.8,20.1-44.9,44.9-44.9h0c9.7,0,19,3.7,26,10.3
		L177,146L148.8,170.1z"/>
	
		<linearGradient id="SVGID_00000110431737726497066500000004300305549953415563_" gradientUnits="userSpaceOnUse" x1="430.3503" y1="449.6559" x2="490.647" y2="137.9527">
		<stop  offset="0.246" style="stop-color:#49B488"/>
		<stop  offset="1" style="stop-color:#86C7A4"/>
	</linearGradient>
	<path style="fill:url(#SVGID_00000110431737726497066500000004300305549953415563_);" d="M446.5,170.1l-3,306h0
		c35,0,63.5-28.4,63.5-63.5V164c0-24.8-20.1-44.9-44.9-44.9h0c-3,0-15,0-26,10.3l-17.7,17.5L446.5,170.1z"/>
	<g>
		
			<linearGradient id="SVGID_00000106108794139886983630000016910104792741394079_" gradientUnits="userSpaceOnUse" x1="368.9334" y1="521.1329" x2="212.7232" y2="319.5713">
			<stop  offset="0.619" style="stop-color:#49B488"/>
			<stop  offset="0.9947" style="stop-color:#49B488"/>
		</linearGradient>
		<polygon style="fill:url(#SVGID_00000106108794139886983630000016910104792741394079_);" points="437.3,390.4 436.6,468.7 
			297.6,335.5 158.5,468.7 157.8,390.4 253.2,292.9 255.9,290.2 255.9,290.2 266.2,279.9 297.6,253.8 328.9,279.9 339.5,289.9 
			339.2,290.2 341.9,292.9 		"/>
	</g>
	<g>
		
			<linearGradient id="SVGID_00000006685735165349965380000003497439231198924161_" gradientUnits="userSpaceOnUse" x1="305.5176" y1="444.4272" x2="297.2565" y2="142.2103">
			<stop  offset="0.676" style="stop-color:#49B488"/>
			<stop  offset="0.9894" style="stop-color:#037041"/>
		</linearGradient>
		<path style="fill:url(#SVGID_00000006685735165349965380000003497439231198924161_);" d="M342.7,288.7c-1,0.8-1.8,1.5-2.5,2
			l1.7,1.8l95.4,97.4l-0.7,78.3L297.6,335L158.5,468.2l-0.7-78.3l95.4-97.4l1.7-1.8c-0.7-0.5-1.5-1.2-2.5-2L149,208.5l-0.9-76.6
			c-0.2-7.2,5.2-5.8,11.6-0.8l133.9,118.7c1.7,1.5,2.7,2.7,3.3,3.5c0,0,0,0,0,0c0.4,0.6,0.6,1.1,0.6,1.4c0-0.4,0.2-0.8,0.6-1.4
			c0,0,0,0,0,0c0.5-0.8,1.6-2,3.3-3.5l133.9-118.7c6.4-5,11.9-6.4,11.7,0.8l-0.9,76.6L342.7,288.7z"/>
		
			<linearGradient id="SVGID_00000084499499807716583050000010446354166763750540_" gradientUnits="userSpaceOnUse" x1="302.792" y1="444.5017" x2="294.531" y2="142.2847">
			<stop  offset="0.4233" style="stop-color:#49B488"/>
			<stop  offset="0.9894" style="stop-color:#49B488"/>
		</linearGradient>
		<path style="fill:url(#SVGID_00000084499499807716583050000010446354166763750540_);" d="M298.2,253.3c-0.4,0.6-0.6,1.1-0.6,1.4
			c0-0.4-0.2-0.8-0.6-1.4C297.4,253.2,297.8,253.2,298.2,253.3z"/>
	</g>
</g>
</svg>
