<svg width="19" height="19" viewBox="0 0 19 19" fill="none" xmlns="http://www.w3.org/2000/svg">
<path fill-rule="evenodd" clip-rule="evenodd" d="M8.80791 0.0123284C8.20883 0.0558183 7.46301 0.186135 6.93043 0.340382C5.79861 0.668185 4.86062 1.12441 3.90559 1.81162C3.12389 2.3741 2.34991 3.15002 1.79247 3.92999C0.861792 5.23221 0.300244 6.62375 0.0818577 8.169C0.0200955 8.60605 0.0123908 8.71055 0.00294779 9.24094C-0.0132959 10.1517 0.0359359 10.7318 0.191989 11.469C0.643086 13.5996 1.82014 15.5217 3.51619 16.8973C4.85751 17.9852 6.44196 18.6733 8.17923 18.9225C8.60172 18.9831 8.74202 18.9902 9.53109 18.9907C10.2724 18.9912 10.2859 18.9908 10.5811 18.9526C11.7402 18.8028 12.7531 18.5032 13.7033 18.029C13.818 17.9717 13.9321 17.9096 13.9569 17.891L14.0019 17.8571L13.9342 17.7706C13.8745 17.6944 13.4639 17.1433 12.8948 16.3756C10.9804 13.793 10.9906 13.8073 9.95078 12.2688C9.03457 10.9132 8.79247 10.5553 7.82729 9.12957C7.32279 8.38437 7.13158 8.10692 7.1194 8.10247C7.09954 8.09521 7.09042 8.86703 7.08924 10.6539C7.08779 12.8358 7.07645 13.6399 7.04618 13.7096C7.01404 13.7837 6.95748 13.8434 6.88704 13.8775C6.82875 13.9058 6.79706 13.9089 6.50761 13.9153L6.19177 13.9223L6.11607 13.8719C6.07336 13.8434 6.01914 13.7902 5.99169 13.7497L5.94301 13.678L5.93864 10.9131C5.93624 9.39234 5.93856 7.70707 5.94382 7.168L5.95336 6.18788L6.00997 6.1264C6.0411 6.0926 6.0951 6.04815 6.12995 6.02763C6.19265 5.99074 6.19667 5.99028 6.49627 5.98567C6.87549 5.97984 6.96642 5.99277 7.05027 6.06446C7.10723 6.11317 7.67238 6.95439 8.8289 8.71193C9.03294 9.02203 9.51536 9.75333 9.90093 10.3371C10.7377 11.6038 11.0844 12.1297 11.5968 12.9092C11.8083 13.2308 12.244 13.8917 12.5652 14.3779C14.2572 16.9394 14.6162 17.4848 14.6119 17.4879C14.6093 17.4897 14.5775 17.5095 14.5412 17.532C14.5049 17.5544 14.4752 17.5775 14.4752 17.5832C14.4751 17.6015 14.4897 17.5949 14.5703 17.5405C14.6135 17.5112 14.7178 17.441 14.8019 17.3844C15.5248 16.8984 16.2621 16.2237 16.8324 15.5263C17.6763 14.4945 18.2835 13.3302 18.6403 12.06C18.8193 11.4226 18.9458 10.6649 18.9632 10.1249C18.9682 9.9718 18.9767 9.86217 18.9822 9.88131C18.9877 9.90045 18.9915 9.71252 18.9907 9.46368C18.9897 9.15365 18.9868 9.07477 18.9817 9.21309C18.9748 9.39772 18.9733 9.37988 18.9647 9.00428C18.958 8.71339 18.9468 8.53066 18.9263 8.37782C18.7054 6.7325 18.1436 5.28492 17.222 3.98568C16.7286 3.29023 16.0861 2.60972 15.4121 2.06895C14.8202 1.59404 14.1236 1.16484 13.4321 0.848826C12.5377 0.440169 11.7055 0.204302 10.6506 0.0605097C10.4327 0.0308018 10.303 0.0232983 9.80228 0.0114513C9.14847 -0.00401512 9.03168 -0.00390375 8.80791 0.0123284ZM12.0374 5.73818C11.9497 5.76243 11.8803 5.82055 11.8273 5.91411L11.7841 5.99033L11.78 8.45018L11.776 10.91L12.3001 11.7147C12.5884 12.1573 12.8516 12.5601 12.885 12.6099L12.9457 12.7004L12.9421 9.33839L12.9384 5.97641L12.9083 5.92073C12.8729 5.85509 12.8047 5.78793 12.7367 5.75175C12.6943 5.72917 12.6504 5.72544 12.396 5.7228C12.1883 5.72064 12.0847 5.72508 12.0374 5.73818ZM0.00386567 9.4776C0.00386567 9.72644 0.00574316 9.82825 0.00805176 9.70382C0.0103604 9.5794 0.0103604 9.37581 0.00805176 9.25138C0.00574316 9.12696 0.00386567 9.22876 0.00386567 9.4776ZM14.4118 17.6134C14.3969 17.6243 14.3886 17.637 14.3932 17.6416C14.3979 17.6462 14.4166 17.6376 14.4349 17.6223C14.4727 17.5908 14.453 17.5832 14.4118 17.6134ZM14.3139 17.6792C14.2876 17.7089 14.2876 17.709 14.3179 17.6931C14.3517 17.6753 14.3725 17.6493 14.3529 17.6493C14.346 17.6493 14.3284 17.6628 14.3139 17.6792ZM14.2165 17.7348L14.19 17.7645L14.2352 17.7414C14.2835 17.7167 14.292 17.705 14.2617 17.705C14.2514 17.705 14.2311 17.7184 14.2165 17.7348ZM14.0747 17.8045C14.0495 17.8206 14.0326 17.8374 14.037 17.8419C14.0473 17.8522 14.1414 17.8021 14.1414 17.7864C14.1414 17.7681 14.1243 17.7727 14.0747 17.8045Z" fill="#49B388"/>
</svg>
