<svg width="85" height="64" viewBox="0 0 85 64" fill="none" xmlns="http://www.w3.org/2000/svg">
<path fill-rule="evenodd" clip-rule="evenodd" d="M36.7078 0.0950919C35.041 0.339352 33.2098 0.833906 31.6484 1.46119C30.1063 2.08073 27.2066 3.78344 26.5125 4.47693L26.1148 4.87449L26.8983 5.72917C27.5575 6.44833 27.7312 6.5594 27.9924 6.429C28.1633 6.34391 28.3497 6.20376 28.4066 6.11791C28.5754 5.86344 30.8146 4.49997 31.8904 3.99676C33.2636 3.35432 35.1504 2.7869 36.6756 2.55765C38.6596 2.25925 41.9882 2.43745 43.8425 2.94129C48.9058 4.31697 52.9034 7.46652 55.0798 11.7945C56.155 13.9327 56.5705 15.6985 56.6655 18.5353C56.7105 19.8754 56.7782 20.9717 56.816 20.9717C56.8539 20.9717 57.4613 20.5099 58.1658 19.9454C60.0105 18.4672 60.898 18.1143 62.7665 18.116C64.6894 18.1179 65.917 18.5959 67.1701 19.8305C68.4287 21.0707 68.7154 21.7851 68.7953 23.8799L68.8618 25.6279L70.0472 25.5042C70.6991 25.4361 71.7474 25.3964 72.3767 25.4159C77.3904 25.571 81.5764 29.161 82.2858 33.9144C82.7301 36.8913 81.5356 39.9941 79.1694 42.0095C77.9716 43.0297 76.8673 43.6184 75.2493 44.0997C73.3623 44.6612 73.2733 44.6439 72.8211 43.6274C72.2808 42.4124 71.0328 41.2 69.6875 40.5827L68.5834 40.0763H42.4315H16.2795L15.1754 40.5827C13.8891 41.1729 12.5866 42.4019 12.1149 43.471C11.9416 43.8639 11.6945 44.1747 11.5554 44.1749C11.1318 44.1756 9.22015 43.2671 8.15476 42.5588C0.927944 37.7529 0.562744 27.4518 7.44162 22.4362C9.84763 20.6816 12.5081 19.759 15.5491 19.6245C19.5694 19.4464 23.0143 20.675 25.7388 23.2587L26.7252 24.1941L27.6893 23.4882C28.2195 23.1 28.6534 22.7309 28.6534 22.668C28.6534 22.6052 27.9949 21.9716 27.1903 21.26C25.7501 19.9866 24.2639 19.0561 22.6066 18.3903L21.7644 18.052L21.8013 17.2301C21.91 14.8113 23.4105 11.3458 25.3281 9.08508C25.6963 8.65101 25.9974 8.22962 25.9974 8.14872C25.9974 7.91838 24.2973 6.59019 24.1276 6.6878C24.0443 6.73591 23.5484 7.3126 23.0257 7.96958C21.1539 10.322 19.7439 13.4239 19.3282 16.104C19.1878 17.0089 19.061 17.4001 18.924 17.3512C18.2731 17.1184 15.4803 17.0971 13.9624 17.3132C7.26334 18.2669 2.1419 22.4244 0.404047 28.3196C0.0946232 29.369 0.0391791 29.9567 0.0391791 32.1869C0.0391791 34.398 0.0962832 35.0138 0.398071 36.0542C0.897234 37.7749 2.38908 40.467 3.59075 41.8153C5.37326 43.8157 8.05864 45.6025 10.4266 46.3639L11.5388 46.7217L11.5886 53.1483L11.6384 59.575L12.1819 60.6033C12.8552 61.8773 14.1673 63.039 15.4984 63.5399L16.4524 63.899H35.5425H54.6325V62.7388V61.5786L35.6255 61.5012C14.6766 61.416 16.2031 61.4929 15.1849 60.4708C14.1701 59.4522 14.1977 59.707 14.2481 51.7935L14.2944 44.5624L14.7488 43.9436C15.3517 43.1223 16.1087 42.6668 17.1877 42.4762C18.4059 42.2608 66.457 42.2608 67.6753 42.4762C68.7543 42.6668 69.5112 43.1223 70.1141 43.9436L70.5685 44.5624L70.6146 51.7918C70.6588 58.6857 70.646 59.0483 70.3394 59.6038C70.1626 59.9241 69.8055 60.3742 69.5462 60.6036C68.6525 61.3939 68.1006 61.5012 64.9298 61.5012H62.0195V62.7505V64L65.215 63.9442C68.071 63.8942 68.5119 63.8506 69.3645 63.5347C70.6936 63.042 72.0044 61.8833 72.681 60.6034L73.2245 59.575L73.2744 53.2922L73.3244 47.0095L74.6373 46.7465C79.659 45.741 83.3382 42.4923 84.5799 37.9673C84.8354 37.0369 84.9193 36.0861 84.9765 33.4812C85.0188 31.5501 85.0028 30.8833 84.9383 31.8775C84.8775 32.8134 84.8128 33.3951 84.7945 33.17C84.7346 32.4284 84.0751 30.6593 83.4189 29.4798C82.1398 27.1807 80.0057 25.2752 77.4575 24.1574C75.8845 23.4673 74.5885 23.1505 72.8478 23.0308C71.5397 22.9408 71.4709 22.9174 71.3787 22.5341C71.0884 21.3248 70.904 20.8161 70.4561 19.9892C69.4863 18.199 67.4586 16.6188 65.3536 16.0128C63.6386 15.5194 61.0583 15.6219 59.4949 16.2458C59.2818 16.3309 59.192 16.2692 59.1331 15.9969C58.5038 13.0881 57.7295 11.0573 56.5572 9.23946C53.5458 4.5702 48.9164 1.48207 43.1785 0.314911C41.7484 0.024088 38.0492 -0.101678 36.7078 0.0950919ZM48.5735 11.7675V12.9276H49.9015H51.2295V11.7675V10.6073H49.9015H48.5735V11.7675ZM51.0635 16.4082V17.5684H52.3915H53.7195V16.4082V15.248H52.3915H51.0635V16.4082ZM3.11755e-06 32.1869C0.000169118 33.293 0.0267291 33.7252 0.0586012 33.1473C0.0906392 32.5695 0.0904732 31.6645 0.0581032 31.1363C0.0258991 30.6081 -0.000328883 31.0809 3.11755e-06 32.1869ZM20.8818 45.5527C18.6325 46.2767 17.5492 48.5575 18.5444 50.4733C19.0142 51.3777 19.5844 51.7378 21.9304 52.6121C24.8984 53.7182 25.5054 54.2556 24.9392 55.2759C24.1082 56.7737 20.9012 56.4685 19.3782 54.7467L18.8765 54.1795L17.9549 54.9132C17.4481 55.3166 17.0334 55.7095 17.0334 55.7863C17.0334 56.1017 18.8902 57.6248 19.7148 57.9857C21.6233 58.821 23.4445 58.8948 25.0668 58.2027C28.1367 56.8931 28.5789 53.4673 25.9043 51.7155C25.5388 51.4761 24.2714 50.9136 23.088 50.4654C21.2752 49.7791 20.9117 49.5857 20.7804 49.2378C20.6708 48.9474 20.6894 48.7117 20.8431 48.4441C21.489 47.3196 24.0209 47.5179 25.6092 48.8175L26.1809 49.2853L26.9881 48.3933L27.7954 47.5015L27.4455 47.1505C26.865 46.5681 25.5594 45.8622 24.4883 45.5516C23.2252 45.1852 22.0222 45.1856 20.8818 45.5527ZM60.6863 45.486C59.7162 45.7776 58.5713 46.6954 58.1825 47.4929C57.5277 48.8365 57.9528 50.7179 59.0899 51.5084C59.3774 51.7083 60.5836 52.2327 61.7705 52.6738C63.8845 53.4597 64.8415 54.063 64.8415 54.6098C64.8415 55.0976 64.4882 55.6401 63.9741 55.9419C63.5238 56.2064 63.2309 56.2505 62.2685 56.199C60.8789 56.1247 60.1895 55.8266 59.2443 54.8912L58.5441 54.1983L57.6258 54.9294C57.1206 55.3315 56.7075 55.7108 56.7075 55.7722C56.7075 55.8338 57.0708 56.2372 57.5149 56.6688C59.0457 58.1566 61.6481 58.9819 63.5551 58.5842C64.9706 58.289 66.1547 57.5471 66.8019 56.5501C67.3134 55.7623 67.3496 55.6192 67.2984 54.5885C67.2007 52.6242 66.211 51.7335 62.6815 50.4336C60.4793 49.6225 60.1309 49.3297 60.4913 48.5926C61.1159 47.315 63.5799 47.4585 65.4268 48.88L65.9289 49.2666L66.7236 48.3519L67.5182 47.437L66.9683 46.9654C66.666 46.7061 65.8869 46.2446 65.2374 45.9404C64.2537 45.4792 63.8377 45.3762 62.7474 45.3233C61.8802 45.2812 61.1847 45.3361 60.6863 45.486ZM38.2815 48.043C38.2815 48.3833 38.2627 48.6617 38.24 48.6616C38.2172 48.6616 37.8055 48.5223 37.3251 48.3522C34.7928 47.4553 31.8841 48.4622 30.5568 50.6952C30.1031 51.4586 30.0644 51.6448 30.0644 53.0705C30.0644 54.4927 30.1038 54.6835 30.5522 55.4379C31.1566 56.4544 32.0777 57.2446 33.2336 57.7376C34.4073 58.2383 36.2519 58.2648 37.3862 57.7973C37.8105 57.6223 38.1855 57.4792 38.2195 57.4792C38.2536 57.4792 38.2815 57.7577 38.2815 58.098V58.7168H39.5265H40.7715V53.0705V47.4242H39.5265H38.2815V48.043ZM51.6722 47.5274C51.6113 47.584 51.5615 47.8699 51.5615 48.1627C51.5615 48.6101 51.5151 48.6766 51.271 48.58C50.0942 48.1153 49.5577 48.0198 48.4075 48.0703C46.9201 48.1358 45.982 48.5141 44.9327 49.472C43.8 50.506 43.3445 51.5601 43.3445 53.1478C43.3445 54.3656 43.3883 54.537 43.9386 55.4682C45.2697 57.7212 48.1434 58.7192 50.6964 57.8152L51.5615 57.5089V58.1128V58.7168H52.8895H54.2175V53.0705V47.4242H53.0002C52.3305 47.4242 51.7329 47.4706 51.6722 47.5274ZM34.2013 50.6566C33.0096 51.1611 32.3481 52.3064 32.5443 53.5259C32.6786 54.3602 33.5753 55.3752 34.4029 55.6297C35.7981 56.0588 37.3547 55.4213 37.9639 54.1713C38.355 53.3689 38.3563 52.7733 37.9692 51.9876C37.6065 51.2516 37.2363 50.9218 36.4133 50.6013C35.6155 50.2906 35.0317 50.3053 34.2013 50.6566ZM47.7675 50.5289C46.5331 50.9895 45.8818 51.9111 45.8922 53.1814C45.914 55.7945 49.7283 56.7316 51.1488 54.4729C51.6227 53.7194 51.7011 52.6079 51.3272 51.9412C50.6345 50.7055 49.0153 50.0631 47.7675 50.5289ZM57.0395 62.7388V63.9893L58.326 63.9442L59.6125 63.899V62.7388V61.5786L58.326 61.5334L57.0395 61.4882V62.7388Z" fill="#D9D9D9"/>
</svg>
