<svg width="32" height="19" viewBox="0 0 32 19" fill="none" xmlns="http://www.w3.org/2000/svg">
<path fill-rule="evenodd" clip-rule="evenodd" d="M15.5383 0.0939024C13.5958 0.206796 12.0527 0.786146 10.8374 1.85886C10.6504 2.02392 10.3116 2.3723 10.1527 2.56288C9.4825 3.36689 8.97197 4.3222 8.59042 5.48635C8.48152 5.8186 8.33403 6.33954 8.34559 6.3511C8.34767 6.35318 8.39711 6.29323 8.45546 6.21787C9.29798 5.12956 10.2492 4.39731 11.2419 4.07285C11.7104 3.91973 12.0092 3.86932 12.5062 3.8596C12.9665 3.85059 13.2313 3.87619 13.6844 3.97346C14.3235 4.11066 14.8854 4.39135 15.4915 4.87616C15.7907 5.11552 16.0417 5.35174 16.8498 6.15457C17.8781 7.17609 18.1592 7.43228 18.6799 7.82281C20.0578 8.85625 21.5407 9.3767 23.4068 9.48189C23.6921 9.49798 24.3786 9.49817 24.6519 9.48225C26.5641 9.37082 28.027 8.84547 29.2547 7.82927C29.4452 7.67155 29.9176 7.1963 30.0788 7.00018C30.7718 6.15704 31.2805 5.18999 31.6619 3.99091C31.7269 3.7864 31.8524 3.34657 31.8717 3.25544C31.8807 3.21271 31.8805 3.21281 31.8279 3.27996C31.3404 3.90241 30.9358 4.32033 30.462 4.69092C29.6951 5.29064 28.8703 5.6304 27.993 5.70785C27.782 5.72648 27.2151 5.71594 27.0319 5.68998C26.3172 5.5887 25.8396 5.42825 25.324 5.11625C24.7878 4.79178 24.4945 4.53691 23.3587 3.40875C22.4461 2.50228 22.2357 2.30509 21.8326 1.97854C20.3666 0.790975 18.8086 0.206245 16.8086 0.0930811C16.5596 0.0789847 15.7863 0.0794873 15.5383 0.0939024ZM7.69331 9.50784C5.7508 9.62074 4.20772 10.2001 2.99247 11.2728C2.80547 11.4379 2.46666 11.7862 2.30779 11.9768C1.63754 12.7808 1.12702 13.7361 0.745464 14.9003C0.636566 15.2325 0.489081 15.7535 0.50064 15.765C0.502724 15.7671 0.552159 15.7072 0.610506 15.6318C1.45303 14.5435 2.40424 13.8113 3.39697 13.4868C3.86547 13.3337 4.16426 13.2833 4.6613 13.2735C5.10995 13.2648 5.38145 13.29 5.80505 13.3798C6.40144 13.5062 6.92793 13.7504 7.46197 14.1483C7.85599 14.4418 8.05684 14.6268 9.01714 15.5808C10.0316 16.5886 10.3153 16.8471 10.8349 17.2368C12.2129 18.2702 13.6957 18.7906 15.5619 18.8958C15.8471 18.9119 16.5337 18.9121 16.8069 18.8962C18.7192 18.7848 20.182 18.2594 21.4097 17.2432C21.6003 17.0855 22.0727 16.6102 22.2339 16.4141C22.9268 15.571 23.4355 14.6039 23.8169 13.4048C23.882 13.2003 24.0074 12.7605 24.0267 12.6694C24.0358 12.6267 24.0356 12.6268 23.983 12.6939C23.4955 13.3163 23.0909 13.7343 22.617 14.1049C21.8502 14.7046 21.0253 15.0443 20.1481 15.1218C19.9371 15.1404 19.3701 15.1299 19.1869 15.1039C18.4722 15.0026 17.9946 14.8422 17.479 14.5302C16.9429 14.2057 16.6495 13.9509 15.5137 12.8227C14.6012 11.9162 14.3908 11.719 13.9877 11.3925C12.5217 10.2049 10.9636 9.62019 8.96369 9.50702C8.71465 9.49293 7.94134 9.49343 7.69331 9.50784Z" fill="#49B388"/>
</svg>
