<svg width="85" height="75" viewBox="0 0 85 75" fill="none" xmlns="http://www.w3.org/2000/svg">
<path fill-rule="evenodd" clip-rule="evenodd" d="M79.923 0.172845C82.4148 0.905791 84.209 2.6893 84.7263 4.94725C85.0912 6.53948 85.0912 54.4823 84.7263 56.0746C84.2761 58.0397 82.9167 59.5887 80.834 60.5102L79.7574 60.9865L68.5351 61.0289C58.6974 61.0661 57.3128 61.0997 57.3128 61.3007C57.3128 61.7381 58.8203 71.8373 58.9043 71.9631C58.9508 72.0326 59.9195 72.0894 61.057 72.0894C63.0226 72.0894 63.1452 72.1078 63.5252 72.4591C64.0475 72.9419 64.1914 73.5156 63.9343 74.0893C63.498 75.0636 65.0114 74.9991 42.5563 74.9991H22.0761L21.6578 74.6126C20.9605 73.9677 20.957 73.124 21.6492 72.484C22.0635 72.101 22.1385 72.0894 24.1993 72.0894H26.3225L26.4133 71.5917C26.4956 71.1394 27.7876 62.1688 27.8744 61.4459C27.9109 61.143 27.7886 61.1389 16.6475 61.0631L5.38379 60.9865L4.40153 60.5612C2.38515 59.6881 0.862564 58.0455 0.492355 56.3436C0.388336 55.8649 0.23494 55.3537 0.151787 55.2075C-0.0259476 54.8952 -0.0603943 5.51786 0.117172 5.68203C0.181442 5.74145 0.328201 5.3638 0.443161 4.84265C0.849319 3.00171 2.26473 1.4153 4.30711 0.511599L5.38379 0.0353224L42.3221 0.00653145C71.8378 -0.0164401 79.3936 0.0170983 79.923 0.172845ZM78.7635 3.01167C79.955 3.27982 80.955 4.04998 81.405 5.04587C81.6334 5.55156 81.6623 8.04106 81.6623 27.29V48.9647H42.5706H3.4789V27.29C3.4789 8.04106 3.50772 5.55156 3.73614 5.04587C4.06245 4.32365 4.70382 3.69745 5.54943 3.27554L6.212 2.94505L25.725 2.9037L45.2381 2.86235L45.125 3.82256C45.0627 4.3506 44.9866 4.82428 44.956 4.87497C44.9255 4.92566 44.5613 5.08676 44.1468 5.23317L43.3933 5.49918L42.8298 5.04189C41.9312 4.31232 40.5363 3.89714 39.2577 3.97892C37.9553 4.06223 36.9704 4.4869 35.9422 5.40837L35.1942 6.07898L22.2495 6.12002L9.30471 6.16107L8.59924 6.6205C8.2113 6.87318 7.71951 7.3853 7.50633 7.75851L7.1189 8.43693L7.16246 26.0843L7.20586 43.7315L7.70278 44.3837C7.9761 44.7425 8.52818 45.1965 8.9297 45.3923L9.65985 45.7487H33.7807C60.2334 45.7487 58.3615 45.8168 58.7994 44.8389C59.0565 44.2652 58.9126 43.6915 58.3903 43.2087L57.9904 42.839L44.3587 42.8301L30.7271 42.8214L31.6382 42.4391C33.1107 41.8213 33.9429 40.8951 34.2106 39.5753C34.3804 38.739 34.6888 38.6612 35.6484 39.2127C36.2513 39.5592 36.7217 39.6988 37.4524 39.7476C40.9128 39.979 43.0973 36.5305 41.1613 33.8928C40.8333 33.4461 40.7826 33.2652 40.919 33.0295C41.0139 32.8656 41.2107 32.7315 41.3563 32.7315C41.9706 32.7315 42.9496 32.3404 43.5762 31.8445C44.149 31.391 44.3037 31.3363 44.6269 31.4725C44.9335 31.6016 45.0236 31.7913 45.0989 32.467C45.2106 33.4661 45.8137 34.6187 46.5727 35.2833C48.5128 36.9821 51.6269 36.9884 53.4924 35.2971C54.2335 34.6253 54.9893 33.3612 54.9921 32.7889C54.9968 31.8731 55.1776 31.5797 55.9104 31.2994L56.6353 31.0222L57.3994 31.5618C60.7419 33.9214 65.5012 31.8175 65.4925 27.984C65.4897 26.7592 65.2361 26.0307 64.503 25.1428C63.8515 24.3538 63.8527 24.3599 64.205 23.5459C64.4144 23.0618 64.558 22.9303 64.877 22.9303C65.6754 22.9303 66.8511 22.5689 67.6654 22.0731C69.28 21.0903 70.1748 19.0852 69.7784 17.3379C69.3119 15.282 67.0963 13.5885 64.8727 13.5885C64.5381 13.5885 64.4092 13.459 64.1714 12.8828C63.9837 12.4288 63.9345 12.1093 64.0334 11.9865C64.8127 11.0183 65.1836 10.4004 65.3513 9.79011L65.5487 9.0708H70.1685H74.7881V25.9166V42.7624L72.4691 42.8008C71.0174 42.825 70.0012 42.9109 69.7517 43.0305C69.1619 43.3139 68.846 44.1163 69.0736 44.7539C69.3956 45.6559 69.7358 45.7487 72.7171 45.7487C76.1513 45.7487 76.8647 45.4988 77.7443 43.9875L78.1009 43.375V25.9166V8.45822L77.7443 7.84565C77.2967 7.07671 76.7771 6.62479 75.992 6.32156C75.4825 6.12462 74.4864 6.08404 70.114 6.08189L64.8495 6.07944L64.1477 5.40745C62.3137 3.65135 59.5137 3.46451 57.3994 4.95705L56.6353 5.49658L55.9051 5.2174C55.25 4.96685 55.1647 4.87512 55.0754 4.32442C55.0208 3.98689 54.9368 3.52133 54.8889 3.28962L54.8018 2.86848L66.5343 2.8841C72.9871 2.89283 78.4902 2.9501 78.7635 3.01167ZM50.3558 2.96986C51.4825 3.30601 51.8466 3.90848 51.8466 5.43608C51.8466 6.73061 52.1419 7.16079 53.2978 7.54977C53.7294 7.69495 54.6512 8.04504 55.3459 8.32744C57.1447 9.05885 57.4163 9.02638 58.7342 7.92222C59.7075 7.10673 59.9082 7.00382 60.5181 7.00673C61.5681 7.01193 62.2821 7.68714 62.2821 8.67477C62.2821 9.03021 62.0454 9.38275 61.2882 10.1552C60.0762 11.3917 60.0242 11.783 60.8491 13.4577C61.154 14.0772 61.5468 14.9285 61.7217 15.3497C62.1264 16.3244 62.7576 16.6508 64.2393 16.6511C65.8507 16.6516 66.5815 17.1533 66.5815 18.2594C66.5815 19.3656 65.8507 19.8673 64.2393 19.8677C62.7576 19.868 62.1264 20.1944 61.7217 21.1691C61.5468 21.5903 61.154 22.4416 60.8491 23.0611C60.0242 24.7359 60.0762 25.1271 61.2882 26.3636C62.0454 27.1361 62.2821 27.4886 62.2821 27.8441C62.2821 28.8283 61.5678 29.5069 60.5259 29.5121C59.9288 29.515 59.7103 29.4043 58.7207 28.5966C57.3881 27.509 56.9747 27.4468 55.5273 28.1159C55.0062 28.3568 54.1709 28.6779 53.671 28.8292C53.1712 28.9807 52.5563 29.2951 52.3044 29.528C51.8895 29.9117 51.8466 30.0542 51.8466 31.0503C51.8466 32.7564 51.2672 33.5482 50.0189 33.5482C48.8774 33.5482 48.2283 32.6114 48.2117 30.9406C48.1996 29.7095 47.8592 29.3371 46.2396 28.7831C45.1089 28.3966 45.0062 28.3239 44.7988 27.7632C44.343 26.5309 43.0592 25.4671 41.821 25.2954C40.7975 25.1535 40.614 24.8117 41.1613 24.0662C43.0973 21.4284 40.9128 17.9799 37.4524 18.2113C36.7217 18.2602 36.2513 18.3997 35.6484 18.7463C34.7941 19.2372 34.2962 19.2104 34.2812 18.6729C34.2772 18.5297 34.1751 18.1567 34.0544 17.8439C33.7233 16.9865 34.086 16.7574 35.9686 16.6343C37.7194 16.5197 38.0918 16.2912 38.5337 15.0596C38.6879 14.6296 39.0631 13.7973 39.3672 13.21C39.6715 12.6228 39.9203 12.0164 39.9203 11.8625C39.9203 11.4312 39.5128 10.8093 38.8436 10.2194C38.5092 9.92457 38.1236 9.48551 37.9866 9.24369C37.4178 8.23892 38.3141 7.00336 39.6117 7.00336C40.1726 7.00336 40.4002 7.11485 41.1311 7.74794C42.5876 9.00954 43.0261 9.09423 44.5217 8.40294C45.0428 8.16204 45.8781 7.8409 46.378 7.68959C46.8778 7.53813 47.4926 7.22373 47.7446 6.9908C48.1453 6.62034 48.2036 6.44653 48.2117 5.59857C48.2168 5.06563 48.3101 4.39486 48.4188 4.10802C48.7018 3.36114 49.7005 2.7743 50.3558 2.96986ZM84.8943 30.5109C84.8943 44.156 84.8747 49.7154 84.8509 42.8652C84.827 36.0149 84.827 24.8507 84.8509 18.0559C84.8747 11.2611 84.8943 16.8658 84.8943 30.5109ZM34.5235 9.18458C34.8099 10.107 35.2419 10.9601 35.7078 11.5245L36.2636 12.1977L35.9404 12.8732C35.631 13.5199 35.5801 13.5532 34.7458 13.6553C33.6434 13.7901 32.7001 14.1738 31.9255 14.8025C31.3698 15.2538 31.2163 15.2975 30.0983 15.3224C29.0588 15.3457 28.7581 15.4183 28.0687 15.8125C27.1416 16.3428 26.3951 17.2508 26.2458 18.0297C26.0717 18.9375 26.0061 19.066 25.6757 19.146C25.4998 19.1884 25.2763 19.1345 25.1789 19.026C25.0817 18.9176 24.6182 18.6764 24.1493 18.4899C22.2812 17.7468 20.1555 18.3778 19.1129 19.9849C18.2662 21.2903 18.2738 22.7453 19.1339 24.0051C19.6933 24.8241 19.5764 25.1628 18.697 25.2719C16.5549 25.5376 14.9945 27.6531 15.4164 29.7196C15.7134 31.1751 17.1741 32.4982 18.6915 32.6863C19.0814 32.7347 19.4023 32.8693 19.4603 33.0087C19.5148 33.1402 19.3251 33.6546 19.0384 34.1517C17.1469 37.433 20.6734 40.9636 24.2881 39.4075C24.7554 39.2064 25.1841 38.9724 25.2407 38.8874C25.4189 38.6208 26.0061 38.877 26.0909 39.2583C26.1355 39.4589 26.2122 39.8009 26.2614 40.0185C26.4979 41.0649 27.5233 42.025 28.9607 42.546C29.7213 42.8217 29.5832 42.8255 20.0432 42.7942L10.3531 42.7624V25.9166V9.0708L22.4084 9.03144C31.9731 9.00035 34.4759 9.03205 34.5235 9.18458ZM51.2908 12.6756C53.0466 12.9969 54.8487 14.3183 55.6282 15.8557C56.0151 16.6188 56.0705 16.9197 56.0705 18.2594C56.0705 19.5991 56.0151 19.9 55.6282 20.6632C54.4861 22.9157 51.67 24.2991 49.1153 23.8625C46.9585 23.4939 45.4059 22.4096 44.4912 20.6331C44.0359 19.7489 43.9785 19.4836 43.9785 18.2594C43.9785 17.0352 44.0359 16.7699 44.4912 15.8857C45.3915 14.1372 46.9452 13.0354 49.024 12.6709C50.017 12.4968 50.3162 12.4974 51.2908 12.6756ZM51.2665 15.8206C52.0134 16.1806 52.3587 16.5113 52.6945 17.1874C53.0808 17.9652 53.0794 18.5548 52.6892 19.3492C51.9903 20.7719 50.193 21.3333 48.6994 20.5955C46.7042 19.61 46.6952 16.9055 48.6839 15.9355C49.5344 15.5207 50.5504 15.4756 51.2665 15.8206ZM30.6074 18.4213C30.888 18.6029 30.9758 18.8124 30.9766 19.3019C30.9771 19.655 31.0539 20.1984 31.1472 20.5094C31.2905 20.986 31.4526 21.1325 32.1816 21.4439C35.308 22.779 35.5379 22.796 36.7731 21.7817C37.2347 21.4027 37.6679 21.0926 37.7356 21.0926C37.8034 21.0926 38.0245 21.1999 38.2269 21.331C38.6619 21.6126 38.7081 22.1941 38.319 22.4905C37.7956 22.8888 37.1044 23.896 37.1044 24.26C37.1044 24.4608 37.2823 24.9501 37.4998 25.3474C37.7172 25.7446 37.9907 26.3648 38.1073 26.7253C38.4447 27.7687 38.9574 28.1372 40.0717 28.1372C41.153 28.1372 41.7424 28.4343 41.7424 28.9795C41.7424 29.5247 41.153 29.8218 40.0717 29.8218C38.9574 29.8218 38.4447 30.1902 38.1073 31.2336C37.9907 31.5941 37.7172 32.2143 37.4998 32.6116C37.2823 33.0088 37.1044 33.4981 37.1044 33.6989C37.1044 34.0629 37.7956 35.0701 38.319 35.4685C38.7081 35.7648 38.6619 36.3463 38.2269 36.6279C37.7214 36.9553 37.6874 36.9461 36.8836 36.261C35.9187 35.4388 35.4345 35.2842 34.6567 35.5502C31.3988 36.6645 31.1437 36.8587 31.0167 38.3214C30.943 39.1709 30.8641 39.3772 30.5378 39.5747C30.1841 39.7891 30.1084 39.7877 29.7333 39.5605C29.3715 39.3413 29.3192 39.1987 29.3185 38.4326C29.3177 37.1281 28.9733 36.7097 27.4759 36.1924C26.8042 35.9604 25.9773 35.6735 25.6381 35.555C24.8736 35.2876 24.4995 35.4051 23.4552 36.2408C23.0251 36.5849 22.6033 36.8664 22.5177 36.8664C22.2644 36.8664 21.6996 36.2738 21.6996 36.0083C21.6996 35.8732 22.035 35.4179 22.445 34.9963C23.3052 34.1118 23.4001 33.5586 22.8596 32.5793C22.6777 32.2497 22.3744 31.5984 22.1858 31.1319C21.7546 30.0666 21.385 29.8218 20.2088 29.8218C19.1422 29.8218 18.5524 29.5219 18.5524 28.9795C18.5524 28.437 19.1422 28.1372 20.2088 28.1372C21.385 28.1372 21.7546 27.8923 22.1858 26.827C22.3744 26.3606 22.6777 25.7092 22.8596 25.3797C23.3936 24.4118 23.3022 23.8755 22.445 22.947C21.6504 22.0863 21.5802 21.9007 21.9066 21.5261C22.3269 21.0439 22.6665 21.0871 23.4624 21.724C24.4993 22.5537 24.8746 22.671 25.6381 22.4039C25.9773 22.2854 26.8042 21.9986 27.4759 21.7666C28.9716 21.2498 29.3177 20.8302 29.3185 19.5316C29.319 18.8045 29.3803 18.6201 29.6874 18.4213C29.8898 18.2902 30.0969 18.1828 30.1474 18.1828C30.1979 18.1828 30.4049 18.2902 30.6074 18.4213ZM31.9552 24.7247C32.3801 24.8634 33.0476 25.2913 33.549 25.7463C35.6146 27.6203 35.6159 30.3374 33.5522 32.2099C32.5371 33.1309 31.5404 33.4972 30.0495 33.4972C28.0878 33.4972 25.9992 32.0601 25.4867 30.3578C24.821 28.1462 25.8115 25.9958 27.9722 24.9617C28.8593 24.5371 29.1832 24.4636 30.1204 24.4738C30.7275 24.4804 31.553 24.5933 31.9552 24.7247ZM30.5973 27.4788C31.1575 27.5791 31.8038 28.383 31.8038 28.9795C31.8038 29.6127 31.1598 30.366 30.5219 30.4787C29.5935 30.6429 28.4909 29.829 28.4909 28.9795C28.4909 28.4853 29.0232 27.8016 29.5733 27.5891C29.8832 27.4695 30.1578 27.3808 30.1835 27.3923C30.2092 27.4038 30.3953 27.4427 30.5973 27.4788ZM64.9 43.2201C65.4877 43.6774 65.643 44.2739 65.3455 44.9323C65.0761 45.5282 64.6582 45.7487 63.7985 45.7487C63.2663 45.7487 63.0574 45.6582 62.7109 45.2775C62.111 44.6183 62.1317 43.8733 62.7662 43.2866C63.3937 42.7065 64.2072 42.6811 64.9 43.2201ZM81.6623 53.6405C81.6623 56.0635 81.2245 56.9317 79.5917 57.7463L78.9292 58.0768H42.5706H6.212L5.54943 57.7463C3.91669 56.9317 3.4789 56.0635 3.4789 53.6405V51.8744H42.5706H81.6623V53.6405ZM43.7982 54.0302C44.034 54.2894 44.227 54.6718 44.227 54.88C44.227 56.1522 42.7115 56.9002 41.6695 56.1424C41.0503 55.692 40.8608 55.1679 41.0876 54.5329C41.3271 53.8615 41.8204 53.559 42.6756 53.559C43.2469 53.559 43.445 53.6422 43.7982 54.0302ZM53.9999 61.228C53.9999 61.3199 54.3353 63.6728 54.7453 66.4568C55.1553 69.2406 55.4907 71.6468 55.4907 71.8039C55.4907 72.08 55.067 72.0894 42.5706 72.0894C32.341 72.0894 29.6519 72.0496 29.6576 71.898C29.6615 71.7928 30.016 69.329 30.4452 66.4231L31.2254 61.1396L42.6126 61.1003C50.752 61.0721 53.9999 61.1085 53.9999 61.228Z" fill="#D9D9D9"/>
</svg>
