<svg width="31" height="31" viewBox="0 0 31 31" fill="none" xmlns="http://www.w3.org/2000/svg">
<path d="M26.2083 4.48625C23.3254 1.58792 19.4867 0 15.4012 0C6.98375 0 0.123334 6.86042 0.123334 15.2779C0.123334 17.9758 0.8325 20.5967 2.15833 22.9092L0 30.8333L8.09375 28.7058C10.3292 29.9237 12.8421 30.5712 15.4012 30.5712C23.8187 30.5712 30.6792 23.7108 30.6792 15.2933C30.6792 11.2079 29.0912 7.36917 26.2083 4.48625ZM15.4012 27.9812C13.1196 27.9812 10.8842 27.3646 8.92625 26.2083L8.46375 25.9308L3.65375 27.195L4.93333 22.5083L4.625 22.0304C3.36083 20.0108 2.6825 17.6675 2.6825 15.2779C2.6825 8.27875 8.38667 2.57458 15.3858 2.57458C18.7775 2.57458 21.9688 3.90042 24.3583 6.30542C26.7633 8.71042 28.0738 11.9017 28.0738 15.2933C28.1046 22.2925 22.4004 27.9812 15.4012 27.9812ZM22.3696 18.4846C21.9842 18.2996 20.1033 17.3746 19.7642 17.2358C19.4096 17.1125 19.1629 17.0508 18.9008 17.4208C18.6388 17.8062 17.9142 18.6696 17.6983 18.9163C17.4825 19.1783 17.2512 19.2092 16.8658 19.0087C16.4804 18.8237 15.2471 18.4075 13.7979 17.1125C12.6571 16.095 11.9017 14.8462 11.6704 14.4608C11.4546 14.0754 11.6396 13.875 11.84 13.6746C12.0096 13.505 12.2254 13.2275 12.4104 13.0117C12.5954 12.7958 12.6725 12.6262 12.7958 12.3796C12.9192 12.1175 12.8575 11.9017 12.765 11.7167C12.6725 11.5317 11.9017 9.65083 11.5933 8.88C11.285 8.14 10.9612 8.2325 10.73 8.21708C10.4987 8.21708 10.2521 8.21708 9.99 8.21708C9.72792 8.21708 9.32708 8.30958 8.9725 8.695C8.63333 9.08042 7.64667 10.0054 7.64667 11.8862C7.64667 13.7671 9.01875 15.5863 9.20375 15.8329C9.38875 16.095 11.9017 19.9492 15.725 21.5987C16.6346 21.9996 17.3437 22.2308 17.8987 22.4004C18.8083 22.6933 19.6408 22.6471 20.3037 22.5546C21.0437 22.4467 22.57 21.6296 22.8783 20.7354C23.2021 19.8412 23.2021 19.0858 23.0942 18.9163C22.9862 18.7467 22.755 18.6696 22.3696 18.4846Z" fill="white"/>
</svg>
